solid ascii
 facet normal 0 0 -1
  outer loop
   vertex -2.4869 -9.68583 -100
   vertex -4.81754 -8.76307 -100
   vertex -6.84547 -7.28969 -100
  endloop
 endfacet
 facet normal 0.124721 -0.987268 0.0987268
  outer loop
   vertex 0 4.32964e-15 -1.42109e-14
   vertex -8.65927e-16 -10 -100
   vertex 2.4869 -9.68583 -100
  endloop
 endfacet
 facet normal 0.366326 -0.925234 0.0987268
  outer loop
   vertex 0 4.32964e-15 -1.42109e-14
   vertex 2.4869 -9.68583 -100
   vertex 4.81754 -8.76307 -100
  endloop
 endfacet
 facet normal 0.584914 -0.805064 0.0987268
  outer loop
   vertex 0 4.32964e-15 -1.42109e-14
   vertex 4.81754 -8.76307 -100
   vertex 6.84547 -7.28969 -100
  endloop
 endfacet
 facet normal 0.766749 -0.63431 0.0987268
  outer loop
   vertex 0 4.32964e-15 -1.42109e-14
   vertex 6.84547 -7.28969 -100
   vertex 8.44328 -5.35827 -100
  endloop
 endfacet
 facet normal 0.900407 -0.423699 0.0987268
  outer loop
   vertex 0 4.32964e-15 -1.42109e-14
   vertex 8.44328 -5.35827 -100
   vertex 9.51056 -3.09017 -100
  endloop
 endfacet
 facet normal 0.977488 -0.186466 0.0987268
  outer loop
   vertex 0 4.32964e-15 -1.42109e-14
   vertex 9.51056 -3.09017 -100
   vertex 9.98027 -0.627905 -100
  endloop
 endfacet
 facet normal 0.993151 0.062484 0.0987268
  outer loop
   vertex 0 4.32964e-15 -1.42109e-14
   vertex 9.98027 -0.627905 -100
   vertex 9.82287 1.87381 -100
  endloop
 endfacet
 facet normal 0.94641 0.307507 0.0987268
  outer loop
   vertex 0 4.32964e-15 -1.42109e-14
   vertex 9.82287 1.87381 -100
   vertex 9.04827 4.25779 -100
  endloop
 endfacet
 facet normal 0.840203 0.533209 0.0987268
  outer loop
   vertex 0 4.32964e-15 -1.42109e-14
   vertex 9.04827 4.25779 -100
   vertex 7.70513 6.37424 -100
  endloop
 endfacet
 facet normal 0.681203 0.725407 0.0987268
  outer loop
   vertex 0 4.32964e-15 -1.42109e-14
   vertex 7.70513 6.37424 -100
   vertex 5.87785 8.09017 -100
  endloop
 endfacet
 facet normal 0.4794 0.872026 0.0987268
  outer loop
   vertex 0 4.32964e-15 -1.42109e-14
   vertex 5.87785 8.09017 -100
   vertex 3.68125 9.29776 -100
  endloop
 endfacet
 facet normal 0.247475 0.963851 0.0987268
  outer loop
   vertex 0 4.32964e-15 -1.42109e-14
   vertex 3.68125 9.29776 -100
   vertex 1.25333 9.92115 -100
  endloop
 endfacet
 facet normal 0 0.995115 0.0987268
  outer loop
   vertex 0 4.32964e-15 -1.42109e-14
   vertex 1.25333 9.92115 -100
   vertex -1.25333 9.92115 -100
  endloop
 endfacet
 facet normal -0.247475 0.963851 0.0987268
  outer loop
   vertex 0 4.32964e-15 -1.42109e-14
   vertex -1.25333 9.92115 -100
   vertex -3.68125 9.29776 -100
  endloop
 endfacet
 facet normal -0.4794 0.872026 0.0987268
  outer loop
   vertex 0 4.32964e-15 -1.42109e-14
   vertex -3.68125 9.29776 -100
   vertex -5.87785 8.09017 -100
  endloop
 endfacet
 facet normal -0.681203 0.725407 0.0987268
  outer loop
   vertex 0 4.32964e-15 -1.42109e-14
   vertex -5.87785 8.09017 -100
   vertex -7.70513 6.37424 -100
  endloop
 endfacet
 facet normal -0.840203 0.533209 0.0987268
  outer loop
   vertex 0 4.32964e-15 -1.42109e-14
   vertex -7.70513 6.37424 -100
   vertex -9.04827 4.25779 -100
  endloop
 endfacet
 facet normal -0.94641 0.307507 0.0987268
  outer loop
   vertex 0 4.32964e-15 -1.42109e-14
   vertex -9.04827 4.25779 -100
   vertex -9.82287 1.87381 -100
  endloop
 endfacet
 facet normal -0.993151 0.062484 0.0987268
  outer loop
   vertex 0 4.32964e-15 -1.42109e-14
   vertex -9.82287 1.87381 -100
   vertex -9.98027 -0.627905 -100
  endloop
 endfacet
 facet normal -0.977488 -0.186466 0.0987268
  outer loop
   vertex 0 4.32964e-15 -1.42109e-14
   vertex -9.98027 -0.627905 -100
   vertex -9.51056 -3.09017 -100
  endloop
 endfacet
 facet normal -0.900407 -0.423699 0.0987268
  outer loop
   vertex 0 4.32964e-15 -1.42109e-14
   vertex -9.51056 -3.09017 -100
   vertex -8.44328 -5.35827 -100
  endloop
 endfacet
 facet normal -0.766749 -0.63431 0.0987268
  outer loop
   vertex 0 4.32964e-15 -1.42109e-14
   vertex -8.44328 -5.35827 -100
   vertex -6.84547 -7.28969 -100
  endloop
 endfacet
 facet normal -0.584914 -0.805064 0.0987268
  outer loop
   vertex 0 4.32964e-15 -1.42109e-14
   vertex -6.84547 -7.28969 -100
   vertex -4.81754 -8.76307 -100
  endloop
 endfacet
 facet normal -0.366326 -0.925234 0.0987268
  outer loop
   vertex 0 4.32964e-15 -1.42109e-14
   vertex -4.81754 -8.76307 -100
   vertex -2.4869 -9.68583 -100
  endloop
 endfacet
 facet normal -0.124721 -0.987268 0.0987268
  outer loop
   vertex 0 4.32964e-15 -1.42109e-14
   vertex -2.4869 -9.68583 -100
   vertex -8.65927e-16 -10 -100
  endloop
 endfacet
endsolid
